<?xml version="1.0" encoding="utf-8"?>
<!-- Generator: Adobe Illustrator 16.0.0, SVG Export Plug-In . SVG Version: 6.00 Build 0)  -->
<!DOCTYPE svg PUBLIC "-//W3C//DTD SVG 1.1//EN" "http://www.w3.org/Graphics/SVG/1.1/DTD/svg11.dtd">
<svg version="1.1" id="Layer_1" xmlns="http://www.w3.org/2000/svg" xmlns:xlink="http://www.w3.org/1999/xlink" x="0px" y="0px"
	 width="3423.769px" height="906.887px" viewBox="0 0 3423.769 906.887" enable-background="new 0 0 3423.769 906.887"
	 xml:space="preserve">
<g id="Background">
	<path fill="#0275D8" d="M3423.769,869.091c0,19.77-17.029,35.796-38.037,35.796H857.923c-21.008,0-38.037-16.026-38.037-35.796
		V40.682c0-19.769,17.029-35.795,38.037-35.795h2527.809c21.008,0,38.037,16.026,38.037,35.795V869.091z"/>
	<g display="none">
		<rect x="-87.114" y="-59.113" display="inline" fill="#5CB85C" width="3320" height="992"/>
	</g>
	<circle fill="none" cx="396.979" cy="518.978" r="302.985"/>
	<path id="Background_Circles" fill="#0275D8" d="M756.961,0H35C15.67,0,0,15.67,0,35v835.955c0,19.33,15.67,35,35,35h721.961
		c19.33,0,35-15.67,35-35V35C791.961,15.67,776.291,0,756.961,0z M584.47,49.997c24.852,0,44.998,20.146,44.998,44.998
		s-20.146,44.998-44.998,44.998c-24.851,0-44.997-20.146-44.997-44.998S559.619,49.997,584.47,49.997z M396.979,821.963
		c-167.334,0-302.985-135.651-302.985-302.985c0-167.333,135.651-302.984,302.985-302.984
		c167.333,0,302.984,135.651,302.984,302.984C699.964,686.312,564.313,821.963,396.979,821.963z M700.47,139.992
		c-24.851,0-44.997-20.146-44.997-44.998s20.146-44.998,44.997-44.998c24.852,0,44.998,20.146,44.998,44.998
		S725.321,139.992,700.47,139.992z"/>
</g>
<g>
	<path opacity="0.2" d="M643.886,348.887l-105,437l-13-349l-85-89h-89l-17,96l-91-98l-94,4l105,436l122,121l0,0h380.075
		c0,0,30.996-4.933,35-28.932c0-26.068,0-379.48,0-379.48l-3.963,3.963l3.963-3.963L643.886,348.887z"/>
</g>
<g>
	<path fill="#FFFFFF" d="M148.551,347.914h95.484l56.438,264.141h1.313l51.188-264.141h86.625l51.844,261.188h1.313l53.813-261.188
		h98.109l-105,438.047h-89.906L408.099,590.07c-4.594-21.436-8.424-42.107-11.484-62.016h-1.313
		c-5.471,33.909-9.408,56.55-11.813,67.922l-41.344,189.984h-88.594L148.551,347.914z"/>
</g>
<g>
	<path fill="#FFFFFF" d="M951.404,283.52h65.219l38.549,180.418h0.896l34.963-180.418h59.168l35.412,178.4h0.896l36.756-178.4
		h67.012l-71.719,299.201h-61.409l-28.464-133.8c-3.137-14.642-5.753-28.761-7.844-42.359h-0.896
		c-3.736,23.162-6.426,38.626-8.068,46.393l-28.239,129.766h-60.513L951.404,283.52z"/>
	<path fill="#FFFFFF" d="M1413.991,582.721v-27.118h-0.896c-7.922,11.654-15.577,20.248-22.973,25.774
		c-7.396,5.525-16.102,8.292-26.11,8.292c-19.575,0-35.187-10.009-46.841-30.032c-11.654-20.021-17.482-47.213-17.482-81.58
		c0-33.02,5.901-59.315,17.706-78.891c11.802-19.572,27.343-29.36,46.617-29.36c10.31,0,19.05,2.577,26.222,7.732
		c7.172,5.154,14.642,13.412,22.412,24.765h0.896V376.53h65.22v206.191H1413.991z M1413.991,478.505
		c0-34.213-8.37-51.324-25.102-51.324c-16.887,0-25.326,17.11-25.326,51.324c0,35.562,8.74,53.341,26.223,53.341
		C1405.923,531.846,1413.991,514.066,1413.991,478.505z"/>
	<path fill="#FFFFFF" d="M1536.137,516.157c22.261,13.149,38.324,19.723,48.186,19.723c5.379,0,9.861-1.38,13.447-4.146
		c3.586-2.764,5.379-6.087,5.379-9.975c0-4.181-1.495-7.245-4.482-9.188c-2.99-1.94-14.196-7.172-33.618-15.688
		c-15.541-6.871-26.747-14.978-33.618-24.316c-6.874-9.337-10.31-20.956-10.31-34.852c0-19.87,6.836-36.23,20.507-49.083
		c13.672-12.849,31.114-19.274,52.332-19.274c20.619,0,45.868,8.219,75.754,24.653l-25.102,46.393
		c-19.426-11.952-35.338-17.93-47.738-17.93c-10.758,0-16.137,4.335-16.137,12.999c0,4.185,1.979,7.809,5.939,10.87
		c3.957,3.064,11.167,6.465,21.627,10.198c19.572,6.874,33.805,15.094,42.695,24.653c8.888,9.563,13.336,21.666,13.336,36.308
		c0,20.92-7.025,38.101-21.068,51.548c-14.046,13.447-31.976,20.171-53.789,20.171c-23.609,0-48.857-8.293-75.752-24.877
		L1536.137,516.157z"/>
	<path fill="#FFFFFF" d="M1704.227,266.935h64.996V403.2h1.12c15.986-22.262,34.438-33.394,55.358-33.394
		c14.938,0,26.558,4.896,34.851,14.68c8.292,9.788,12.438,23.571,12.438,41.351v156.884h-65.219V456.989
		c0-8.068-1.607-14.379-4.819-18.938c-3.215-4.556-7.658-6.836-13.335-6.836c-13.598,0-20.395,9.189-20.395,27.567v123.938h-64.996
		V266.935z"/>
	<path fill="#FFFFFF" d="M1920.952,314.672c0-9.56,3.362-17.706,10.086-24.429s14.792-10.085,24.205-10.085
		c9.561,0,17.705,3.362,24.43,10.085c6.723,6.724,10.085,14.869,10.085,24.429c0,9.413-3.362,17.52-10.085,24.317
		c-6.725,6.8-14.869,10.197-24.43,10.197c-9.266,0-17.296-3.397-24.093-10.197C1924.35,332.192,1920.952,324.085,1920.952,314.672z
		 M1922.745,376.53h65.22v206.191h-65.22V376.53z"/>
	<path fill="#FFFFFF" d="M2104.284,376.53v28.015h1.12c15.24-23.158,33.843-34.739,55.806-34.739
		c14.344,0,25.736,4.784,34.179,14.344c8.439,9.563,12.663,22.489,12.663,38.773v159.798h-65.219V455.645
		c0-7.021-1.646-12.775-4.932-17.257c-3.288-4.482-7.546-6.724-12.774-6.724c-13.896,0-20.843,8.741-20.843,26.222v124.835h-64.996
		V376.53H2104.284z"/>
	<path fill="#FFFFFF" d="M2359.558,583.617v-29.359c-12.702,18.68-27.791,28.016-45.273,28.016c-22.114,0-39.298-9.225-51.547-27.68
		c-12.254-18.451-18.379-44.562-18.379-78.33c0-33.02,5.975-58.944,17.93-77.77c11.952-18.826,28.313-28.239,49.083-28.239
		c18.525,0,34.14,9.339,46.841,28.015h0.896v-21.74h65.22V567.48c0,17.482-3.103,34.066-9.301,49.756
		c-6.202,15.688-17.146,28.014-32.834,36.979s-32.872,13.447-51.548,13.447c-18.679,0-36.234-5.006-52.668-15.016
		c-16.438-10.012-27.119-26.746-32.05-50.203h58.271c6.724,10.457,15.09,15.689,25.102,15.689c8.517,0,15.688-3.327,21.516-9.975
		C2356.644,601.509,2359.558,593.328,2359.558,583.617z M2359.558,475.367c0-33.317-8.37-49.979-25.102-49.979
		c-8.22,0-14.719,4.034-19.499,12.103c-4.783,8.068-7.172,19.275-7.172,33.619c0,37.652,8.741,56.479,26.222,56.479
		C2351.04,527.588,2359.558,510.184,2359.558,475.367z"/>
	<path fill="#FFFFFF" d="M2577.628,583.617v-29.359c-12.702,18.68-27.791,28.016-45.273,28.016c-22.114,0-39.298-9.225-51.547-27.68
		c-12.254-18.451-18.379-44.562-18.379-78.33c0-33.02,5.975-58.944,17.93-77.77c11.952-18.826,28.313-28.239,49.083-28.239
		c18.525,0,34.14,9.339,46.841,28.015h0.896v-21.74h65.22V567.48c0,17.482-3.103,34.066-9.301,49.756
		c-6.202,15.688-17.146,28.014-32.834,36.979s-32.872,13.447-51.548,13.447c-18.679,0-36.234-5.006-52.668-15.016
		c-16.438-10.012-27.119-26.746-32.05-50.203h58.271c6.724,10.457,15.09,15.689,25.102,15.689c8.517,0,15.688-3.327,21.516-9.975
		C2574.714,601.509,2577.628,593.328,2577.628,583.617z M2577.628,475.367c0-33.317-8.37-49.979-25.102-49.979
		c-8.22,0-14.719,4.034-19.499,12.103c-4.783,8.068-7.172,19.275-7.172,33.619c0,37.652,8.741,56.479,26.222,56.479
		C2569.11,527.588,2577.628,510.184,2577.628,475.367z"/>
	<path fill="#FFFFFF" d="M2690.584,376.53h65.219v132.679c0,6.875,1.604,12.59,4.819,17.146c3.211,4.559,7.581,6.835,13.11,6.835
		c12.551,0,18.826-9.188,18.826-27.567V376.53h65.22v119.457c0,30.334-7.099,53.529-21.292,69.59
		c-14.196,16.063-34.665,24.093-61.408,24.093c-29.886,0-51.437-8.216-64.659-24.653c-13.224-16.435-19.835-36.98-19.835-61.633
		V376.53z"/>
	<path fill="#FFFFFF" d="M2970.96,376.53v28.015h1.12c15.24-23.158,33.843-34.739,55.806-34.739
		c14.344,0,25.736,4.784,34.179,14.344c8.439,9.563,12.663,22.489,12.663,38.773v159.798h-65.219V455.645
		c0-7.021-1.646-12.775-4.932-17.257c-3.288-4.482-7.546-6.724-12.774-6.724c-13.896,0-20.843,8.741-20.843,26.222v124.835h-64.996
		V376.53H2970.96z"/>
	<path fill="#FFFFFF" d="M3130.31,516.157c22.261,13.149,38.324,19.723,48.186,19.723c5.379,0,9.861-1.38,13.447-4.146
		c3.586-2.764,5.379-6.087,5.379-9.975c0-4.181-1.495-7.245-4.482-9.188c-2.99-1.94-14.196-7.172-33.618-15.688
		c-15.541-6.871-26.747-14.978-33.618-24.316c-6.874-9.337-10.31-20.956-10.31-34.852c0-19.87,6.836-36.23,20.507-49.083
		c13.672-12.849,31.114-19.274,52.332-19.274c20.619,0,45.868,8.219,75.754,24.653l-25.102,46.393
		c-19.426-11.952-35.338-17.93-47.738-17.93c-10.758,0-16.137,4.335-16.137,12.999c0,4.185,1.979,7.809,5.939,10.87
		c3.957,3.064,11.167,6.465,21.627,10.198c19.572,6.874,33.805,15.094,42.695,24.653c8.888,9.563,13.336,21.666,13.336,36.308
		c0,20.92-7.025,38.101-21.068,51.548c-14.046,13.447-31.976,20.171-53.789,20.171c-23.609,0-48.857-8.293-75.752-24.877
		L3130.31,516.157z"/>
</g>
</svg>
